<?xml version="1.0" encoding="UTF-8" standalone="no"?>
<!-- Created with Inkscape (http://www.inkscape.org/) -->

<svg
   xmlns:dc="http://purl.org/dc/elements/1.1/"
   xmlns:cc="http://creativecommons.org/ns#"
   xmlns:rdf="http://www.w3.org/1999/02/22-rdf-syntax-ns#"
   xmlns:svg="http://www.w3.org/2000/svg"
   xmlns="http://www.w3.org/2000/svg"
   xmlns:sodipodi="http://sodipodi.sourceforge.net/DTD/sodipodi-0.dtd"
   xmlns:inkscape="http://www.inkscape.org/namespaces/inkscape"
   width="256"
   height="256"
   viewBox="0 0 67.733332 67.733335"
   version="1.1"
   id="svg2361"
   inkscape:version="0.92.4 (f8dce91, 2019-08-02)"
   sodipodi:docname="profile_placeholder.svg">
  <defs
     id="defs2355" />
  <sodipodi:namedview
     id="base"
     pagecolor="#ffffff"
     bordercolor="#666666"
     borderopacity="1.0"
     inkscape:pageopacity="0.0"
     inkscape:pageshadow="2"
     inkscape:zoom="1"
     inkscape:cx="105.5413"
     inkscape:cy="224.09073"
     inkscape:document-units="mm"
     inkscape:current-layer="layer1"
     showgrid="false"
     units="px"
     inkscape:window-width="1550"
     inkscape:window-height="836"
     inkscape:window-x="50"
     inkscape:window-y="27"
     inkscape:window-maximized="1" />
  <metadata
     id="metadata2358">
    <rdf:RDF>
      <cc:Work
         rdf:about="">
        <dc:format>image/svg+xml</dc:format>
        <dc:type
           rdf:resource="http://purl.org/dc/dcmitype/StillImage" />
        <dc:title></dc:title>
      </cc:Work>
    </rdf:RDF>
  </metadata>
  <g
     inkscape:label="Layer 1"
     inkscape:groupmode="layer"
     id="layer1"
     transform="translate(0,-229.26665)">
    <circle
       style="fill:#9292b0;fill-opacity:1;stroke:none;stroke-width:13.63683224;stroke-linejoin:round;stroke-miterlimit:4;stroke-dasharray:none;stroke-opacity:1"
       id="circle965"
       cx="33.866665"
       cy="263.13333"
       r="33.825741"
       inkscape:export-filename="/home/tony/mr6project/tony/static/images/profile_placeholder.png"
       inkscape:export-xdpi="60"
       inkscape:export-ydpi="60" />
    <path
       style="fill:#56567c;fill-opacity:1;stroke:none;stroke-width:21.64490891;stroke-linejoin:round;stroke-miterlimit:4;stroke-dasharray:none;stroke-opacity:1"
       d="M 128.01172 57.533203 A 53.689519 53.689519 0 0 0 74.322266 111.22266 A 53.689519 53.689519 0 0 0 128.01172 164.91211 A 53.689519 53.689519 0 0 0 181.70117 111.22266 A 53.689519 53.689519 0 0 0 128.01172 57.533203 z M 175.97461 156.94727 A 66.344254 66.344254 0 0 1 128.01172 177.5625 A 66.344254 66.344254 0 0 1 80.003906 156.96875 A 71.08978 71.08978 0 0 0 57.833984 198.4668 L 198.16602 198.4668 A 71.08978 71.08978 0 0 0 175.97461 156.94727 z "
       transform="matrix(0.26458333,0,0,0.26458333,0,229.26665)"
       id="circle961" />
  </g>
</svg>
